<?xml version="1.0" encoding="UTF-8"?>
<!DOCTYPE svg PUBLIC "-//W3C//DTD SVG 1.1//EN" "http://www.w3.org/Graphics/SVG/1.1/DTD/svg11.dtd">
<!-- Creator: CorelDRAW X8 -->
<svg xmlns="http://www.w3.org/2000/svg" xml:space="preserve" width="5.9266mm" height="3.2172mm" version="1.1" style="shape-rendering:geometricPrecision; text-rendering:geometricPrecision; image-rendering:optimizeQuality; fill-rule:evenodd; clip-rule:evenodd"
viewBox="0 0 593 322"
 xmlns:xlink="http://www.w3.org/1999/xlink">
 <defs>
  <style type="text/css">
   <![CDATA[
    .fil1 {fill:#E4B040}
    .fil0 {fill:#E4B040;fill-rule:nonzero}
   ]]>
  </style>
 </defs>
 <g id="Camada_x0020_1">
  <metadata id="CorelCorpID_0Corel-Layer"/>
  <g id="_2312294487952">
   <path class="fil0" d="M587 310l-88 0c-34,0 -58,-6 -73,-19 -15,-13 -23,-35 -23,-64l0 -215 59 0 0 215c0,12 2,20 8,24 5,5 15,7 29,7l88 0 0 52z"/>
   <path class="fil0" d="M352 160l1 32c-2,20 -4,38 -8,51 -4,14 -12,27 -23,39 -19,19 -47,28 -83,28l-112 -1 0 -297 116 0c34,0 60,9 79,28 15,15 24,34 27,56 2,16 3,37 3,64zm-71 80c6,-7 9,-16 10,-27 2,-11 3,-29 3,-53 0,-24 -1,-41 -3,-52 -1,-11 -4,-20 -10,-26 -10,-12 -24,-18 -43,-18l-53 0 0 194 52 0c19,0 34,-6 44,-18z"/>
   <path class="fil1" d="M10 80l0 210c0,11 9,20 20,20l39 0 0 -230c-8,7 -18,11 -30,11 -11,0 -21,-4 -29,-11z"/>
   <circle class="fil1" cx="39" cy="49" r="34"/>
  </g>
 </g>
</svg>
