<?xml version="1.0" encoding="UTF-8"?>
<!DOCTYPE svg PUBLIC "-//W3C//DTD SVG 1.1//EN" "http://www.w3.org/Graphics/SVG/1.1/DTD/svg11.dtd">
<!-- Creator: CorelDRAW X8 -->
<svg xmlns="http://www.w3.org/2000/svg" xml:space="preserve" width="6.7732mm" height="1.5238mm" version="1.1" style="shape-rendering:geometricPrecision; text-rendering:geometricPrecision; image-rendering:optimizeQuality; fill-rule:evenodd; clip-rule:evenodd"
viewBox="0 0 677 152"
 xmlns:xlink="http://www.w3.org/1999/xlink">
 <defs>
  <style type="text/css">
   <![CDATA[
    .fil1 {fill:#E4B040}
    .fil0 {fill:#E4B040;fill-rule:nonzero}
    .fil2 {fill:#FBF1DC;fill-rule:nonzero}
   ]]>
  </style>
 </defs>
 <g id="Camada_x0020_1">
  <metadata id="CorelCorpID_0Corel-Layer"/>
  <g id="_2312294547120">
   <path class="fil0" d="M291 151l-44 0c-17,0 -29,-3 -37,-10 -7,-6 -11,-17 -11,-32l0 -107 29 0 0 107c0,6 2,10 4,12 3,3 8,4 15,4l44 0 0 26z"/>
   <path class="fil0" d="M173 76l1 16c-1,10 -2,19 -4,26 -2,6 -6,13 -12,19 -9,9 -23,14 -41,14l-56 -1 0 -148 58 0c17,0 30,4 39,14 8,7 13,17 14,28 1,8 1,18 1,32zm-35 40c3,-4 4,-8 5,-14 1,-5 1,-14 1,-26 0,-12 0,-21 -1,-26 -1,-6 -2,-10 -5,-13 -5,-6 -12,-9 -22,-9l-26 0 0 97 26 0c10,0 17,-3 22,-9z"/>
   <path class="fil1" d="M3 36l0 105c0,5 4,10 9,10l20 0 0 -115c-4,3 -9,5 -15,5 -6,0 -11,-2 -14,-5z"/>
   <path class="fil2" d="M343 144c2,0 4,0 5,-1l0 6c-2,1 -4,1 -8,1 -8,0 -12,-6 -12,-17l0 -55 -6 0 0 -4 6 -2 3 -18 4 0 0 18 12 0 0 6 -12 0 0 53c0,5 1,8 2,10 1,2 3,3 6,3zm39 6c-8,0 -14,-3 -19,-10 -4,-7 -6,-16 -6,-29 0,-13 2,-23 6,-30 4,-7 9,-10 17,-10 6,0 11,3 15,9 3,6 5,14 5,24l0 7 -36 0c0,11 1,19 5,25 3,5 7,8 13,8 5,0 10,-2 16,-5l0 7c-5,3 -10,4 -16,4zm-3 -73c-9,0 -14,9 -15,28l29 0c0,-9 -1,-16 -3,-21 -3,-5 -6,-7 -11,-7zm45 72l-7 0 0 -110 7 0 0 110zm42 1c-8,0 -14,-3 -19,-10 -4,-7 -6,-16 -6,-29 0,-13 2,-23 6,-30 4,-7 9,-10 16,-10 7,0 12,3 15,9 4,6 6,14 6,24l0 7 -36 0c0,11 1,19 4,25 3,5 8,8 14,8 5,0 10,-2 15,-5l0 7c-4,3 -10,4 -15,4zm-3 -73c-9,0 -14,9 -15,28l29 0c0,-9 -1,-16 -4,-21 -2,-5 -6,-7 -10,-7zm58 73c-8,0 -14,-3 -18,-10 -4,-6 -6,-16 -6,-29 0,-13 2,-23 6,-30 4,-7 10,-10 18,-10 5,0 8,1 12,3l-3 5c-3,-1 -6,-2 -9,-2 -11,0 -17,11 -17,34 0,22 6,33 17,33 4,0 7,0 11,-2l0 6c-1,1 -3,1 -6,2 -2,0 -4,0 -5,0zm68 -40c0,13 -2,23 -6,30 -4,7 -10,10 -18,10 -7,0 -13,-3 -17,-10 -4,-7 -6,-17 -6,-30 0,-26 8,-39 24,-39 7,0 13,3 17,10 4,7 6,17 6,29zm-40 0c0,12 1,20 4,26 3,5 7,8 12,8 11,0 17,-11 17,-34 0,-22 -6,-33 -17,-33 -5,0 -9,3 -12,9 -3,5 -4,13 -4,24zm122 39l0 -52c0,-13 -4,-19 -12,-19 -5,0 -8,2 -11,6 -2,5 -3,11 -3,20l0 45 -7 0 0 -52c0,-7 -1,-12 -3,-15 -1,-3 -4,-4 -8,-4 -5,0 -9,2 -11,6 -2,5 -4,13 -4,23l0 42 -6 0 0 -77 5 0 1 11 1 0c3,-8 8,-12 15,-12 4,0 8,1 10,3 3,3 4,6 5,10 2,-5 4,-8 7,-10 3,-2 6,-3 11,-3 5,0 10,2 12,7 3,4 4,11 4,21l0 50 -6 0z"/>
   <circle class="fil1" cx="17" cy="20" r="17"/>
  </g>
 </g>
</svg>
